<?xml version="1.0" ?><svg viewBox="0 0 64 64" xmlns="http://www.w3.org/2000/svg"><g id="arrow-chart-element-diagram-infographic"><path d="M36,25H18a15,15,0,0,0,0,30H28l4-5-4-5H18a5,5,0,0,1,0-10H36l-4-5Z" style="fill:#ffcd00"/><polygon points="28 55 45 55 45 61 61 50 45 39 45 45 28 45 32 50 28 55" style="fill:#ed1c24"/><polygon points="28 5 3 5 3 15 28 15 32 10 28 5" style="fill:#006df0"/><path d="M46,25H36l-4,5,4,5H46A15,15,0,0,0,46,5H28l4,5-4,5H46a5,5,0,0,1,0,10Z" style="fill:#7ed63e"/><polygon points="28 55 45 55 45 61 61 50 32 50 28 55" style="fill:#d80027"/><path d="M18,30H32l4-5H18a15,15,0,0,0,0,30H28l4-5H18a10,10,0,0,1,0-20Z" style="fill:#ebbf00"/><polygon points="28 15 32 10 3 10 3 15 28 15" style="fill:#005ece"/><path d="M56,20A10,10,0,0,0,46,10H32l-4,5H46a5,5,0,0,1,0,10H36l-4,5H46A10,10,0,0,0,56,20Z" style="fill:#5eac24"/><path d="M61.566,49.176l-16-11A1,1,0,0,0,44,39v5H18a4,4,0,0,1,0-8H46A16,16,0,0,0,46,4H3A1,1,0,0,0,2,5V15a1,1,0,0,0,1,1H46a4,4,0,0,1,0,8H18a16,16,0,0,0,0,32H44v5a1,1,0,0,0,1.566.824l16-11a1,1,0,0,0,0-1.648ZM4,6H27.519l3.2,4-3.2,4H4ZM52,20a6.006,6.006,0,0,0-6-6H30.081l2.7-3.375a1,1,0,0,0,0-1.25L30.081,6H46a14,14,0,0,1,0,28H36.481l-3.2-4,3.2-4H46A6.006,6.006,0,0,0,52,20ZM4,40A14.015,14.015,0,0,1,18,26H33.919l-2.7,3.375a1,1,0,0,0,0,1.25L33.919,34H18a6,6,0,0,0,0,12h9.519l3.2,4-3.2,4H18A14.015,14.015,0,0,1,4,40ZM46,59.1V55a1,1,0,0,0-1-1H30.081l2.7-3.375a1,1,0,0,0,0-1.25L30.081,46H45a1,1,0,0,0,1-1V40.9L59.235,50Z" style="fill:#231f20"/></g></svg>