<?xml version="1.0" standalone="no"?>
<!DOCTYPE svg PUBLIC "-//W3C//DTD SVG 20010904//EN"
 "http://www.w3.org/TR/2001/REC-SVG-20010904/DTD/svg10.dtd">
<svg version="1.0" xmlns="http://www.w3.org/2000/svg"
 width="848.051360pt" height="191.000000pt" viewBox="0 0 848.051360 191.000000"
 preserveAspectRatio="xMidYMid meet">
<metadata>
Created by potrace 1.12, written by Peter Selinger 2001-2015
</metadata>
<g transform="translate(-62.000000,204.000000) scale(0.100000,-0.100000)"
fill="#e51a0a" stroke="none">
<path d="M620 1910 l0 -130 270 0 270 0 0 -600 0 -600 160 0 160 0 0 600 0
600 3805 0 3805 0 0 130 0 130 -4235 0 -4235 0 0 -130z"/>
<path d="M1680 1100 l0 -500 155 0 155 0 0 175 0 175 94 0 c164 0 178 -14 187
-200 3 -70 9 -132 13 -139 5 -7 58 -11 167 -11 142 0 159 2 159 17 0 9 -6 24
-14 32 -9 11 -17 62 -23 151 -11 170 -25 204 -101 240 -28 14 -51 27 -51 30 0
3 21 19 47 35 29 18 57 48 72 75 22 39 25 57 25 140 0 102 -16 151 -67 196
-78 71 -154 84 -515 84 l-303 0 0 -500z m557 248 c52 -26 56 -123 5 -156 -20
-13 -53 -18 -139 -21 l-113 -3 0 94 c0 52 3 98 8 103 11 11 208 -2 239 -17z"/>
<path d="M2760 1100 l0 -500 408 2 407 3 3 118 3 117 -251 0 -250 0 0 80 0 80
200 0 200 0 0 115 0 115 -200 0 -200 0 0 70 0 70 240 0 240 0 0 115 0 115
-400 0 -400 0 0 -500z"/>
<path d="M3780 1100 l0 -500 375 0 375 0 0 135 0 135 -220 0 -220 0 0 365 0
365 -155 0 -155 0 0 -500z"/>
<path d="M4927 1528 c-110 -305 -317 -904 -317 -915 0 -11 28 -13 152 -11
l152 3 20 68 19 67 160 -2 161 -3 20 -65 21 -65 153 -3 c113 -2 152 1 152 9 0
7 -77 232 -172 501 l-171 488 -162 0 -162 0 -26 -72z m241 -411 c27 -92 46
-169 44 -172 -3 -3 -50 -5 -104 -5 -90 0 -99 2 -94 18 3 9 24 80 46 157 54
185 51 177 56 172 2 -2 26 -79 52 -170z"/>
<path d="M5520 1597 c0 -6 230 -960 236 -979 5 -16 22 -18 165 -18 87 0 159 3
159 6 0 17 102 562 108 578 5 12 25 -73 56 -235 26 -140 52 -275 57 -302 l11
-47 156 2 156 3 42 175 c23 96 74 312 113 480 40 168 74 313 77 323 5 16 -7
17 -145 17 l-149 0 -6 -27 c-3 -16 -26 -156 -51 -313 -25 -156 -48 -286 -50
-289 -7 -6 -10 9 -65 309 -28 157 -54 293 -56 303 -5 15 -20 17 -137 17 l-132
0 -58 -303 c-61 -314 -65 -332 -71 -326 -4 4 -106 599 -106 618 0 7 -51 11
-155 11 -85 0 -155 -2 -155 -3z"/>
<path d="M6992 1103 l3 -498 150 0 150 0 0 293 c0 160 1 292 1 292 1 0 9 -21
19 -47 10 -27 85 -159 168 -295 l150 -248 149 0 148 0 0 500 0 500 -151 0
-150 0 3 -294 c2 -162 1 -293 -1 -290 -2 2 -14 27 -25 56 -12 29 -86 160 -164
291 l-143 237 -155 0 -154 0 2 -497z"/>
<path d="M8070 1595 c0 -3 81 -144 180 -314 l180 -308 0 -276 0 -277 -3905 0
-3905 0 0 -145 0 -145 4065 0 4065 0 0 425 0 425 159 279 c88 153 167 293 175
310 l17 31 -171 0 -170 0 -82 -165 c-46 -91 -86 -165 -90 -165 -5 0 -45 74
-90 165 l-83 165 -172 0 c-95 0 -173 -2 -173 -5z"/>
</g>
</svg>
